<mxfile host="app.diagrams.net" modified="2024-04-08T09:44:39.298Z" agent="Mozilla/5.0 (Windows NT 10.0; Win64; x64) AppleWebKit/537.36 (KHTML, like Gecko) Chrome/123.0.0.0 Safari/537.36 Edg/123.0.0.0" etag="VX703uYntLoWsNeK7-XT" version="24.2.2" type="github">
  <diagram name="Page-1" id="13e1069c-82ec-6db2-03f1-153e76fe0fe0">
    <mxGraphModel dx="1154" dy="640" grid="0" gridSize="10" guides="1" tooltips="1" connect="1" arrows="1" fold="1" page="1" pageScale="1" pageWidth="1100" pageHeight="850" background="none" math="0" shadow="0">
      <root>
        <mxCell id="0" />
        <mxCell id="1" parent="0" />
        <mxCell id="9J6F_ASFOK-RwOqG2t-2-2" value="开始" style="strokeWidth=2;html=1;shape=mxgraph.flowchart.terminator;whiteSpace=wrap;" parent="1" vertex="1">
          <mxGeometry x="219" y="145" width="65" height="31" as="geometry" />
        </mxCell>
        <mxCell id="9J6F_ASFOK-RwOqG2t-2-18" style="edgeStyle=orthogonalEdgeStyle;rounded=0;orthogonalLoop=1;jettySize=auto;html=1;entryX=0;entryY=0.5;entryDx=0;entryDy=0;" parent="1" source="9J6F_ASFOK-RwOqG2t-2-3" target="9J6F_ASFOK-RwOqG2t-2-5" edge="1">
          <mxGeometry relative="1" as="geometry" />
        </mxCell>
        <mxCell id="9J6F_ASFOK-RwOqG2t-2-19" style="edgeStyle=orthogonalEdgeStyle;rounded=0;orthogonalLoop=1;jettySize=auto;html=1;entryX=0.5;entryY=0;entryDx=0;entryDy=0;" parent="1" source="9J6F_ASFOK-RwOqG2t-2-3" target="9J6F_ASFOK-RwOqG2t-2-6" edge="1">
          <mxGeometry relative="1" as="geometry" />
        </mxCell>
        <mxCell id="9J6F_ASFOK-RwOqG2t-2-3" value="选择标注方式" style="strokeWidth=2;html=1;shape=mxgraph.flowchart.decision;whiteSpace=wrap;" parent="1" vertex="1">
          <mxGeometry x="192" y="196" width="119" height="42" as="geometry" />
        </mxCell>
        <mxCell id="9J6F_ASFOK-RwOqG2t-2-25" style="edgeStyle=orthogonalEdgeStyle;rounded=0;orthogonalLoop=1;jettySize=auto;html=1;" parent="1" source="9J6F_ASFOK-RwOqG2t-2-5" target="9J6F_ASFOK-RwOqG2t-2-10" edge="1">
          <mxGeometry relative="1" as="geometry" />
        </mxCell>
        <mxCell id="9J6F_ASFOK-RwOqG2t-2-5" value="人工标注" style="rounded=0;whiteSpace=wrap;html=1;" parent="1" vertex="1">
          <mxGeometry x="335" y="201.5" width="85" height="31" as="geometry" />
        </mxCell>
        <mxCell id="9J6F_ASFOK-RwOqG2t-2-22" style="edgeStyle=orthogonalEdgeStyle;rounded=0;orthogonalLoop=1;jettySize=auto;html=1;" parent="1" source="9J6F_ASFOK-RwOqG2t-2-6" target="9J6F_ASFOK-RwOqG2t-2-7" edge="1">
          <mxGeometry relative="1" as="geometry" />
        </mxCell>
        <mxCell id="9J6F_ASFOK-RwOqG2t-2-6" value="自动标注" style="rounded=0;whiteSpace=wrap;html=1;" parent="1" vertex="1">
          <mxGeometry x="209" y="254" width="85" height="31" as="geometry" />
        </mxCell>
        <mxCell id="9J6F_ASFOK-RwOqG2t-2-23" style="edgeStyle=orthogonalEdgeStyle;rounded=0;orthogonalLoop=1;jettySize=auto;html=1;entryX=0.5;entryY=0;entryDx=0;entryDy=0;" parent="1" source="9J6F_ASFOK-RwOqG2t-2-7" target="9J6F_ASFOK-RwOqG2t-2-8" edge="1">
          <mxGeometry relative="1" as="geometry" />
        </mxCell>
        <mxCell id="9J6F_ASFOK-RwOqG2t-2-7" value="选择标注模型" style="rounded=0;whiteSpace=wrap;html=1;" parent="1" vertex="1">
          <mxGeometry x="209" y="303" width="85" height="31" as="geometry" />
        </mxCell>
        <mxCell id="9J6F_ASFOK-RwOqG2t-2-24" style="edgeStyle=orthogonalEdgeStyle;rounded=0;orthogonalLoop=1;jettySize=auto;html=1;entryX=0.5;entryY=0;entryDx=0;entryDy=0;" parent="1" source="9J6F_ASFOK-RwOqG2t-2-8" target="9J6F_ASFOK-RwOqG2t-2-9" edge="1">
          <mxGeometry relative="1" as="geometry" />
        </mxCell>
        <mxCell id="9J6F_ASFOK-RwOqG2t-2-8" value="选择数据范围" style="rounded=0;whiteSpace=wrap;html=1;" parent="1" vertex="1">
          <mxGeometry x="209" y="351" width="85" height="31" as="geometry" />
        </mxCell>
        <mxCell id="9J6F_ASFOK-RwOqG2t-2-9" value="批量自动标注" style="rounded=0;whiteSpace=wrap;html=1;" parent="1" vertex="1">
          <mxGeometry x="209" y="400" width="85" height="31" as="geometry" />
        </mxCell>
        <mxCell id="9J6F_ASFOK-RwOqG2t-2-26" style="edgeStyle=orthogonalEdgeStyle;rounded=0;orthogonalLoop=1;jettySize=auto;html=1;" parent="1" source="9J6F_ASFOK-RwOqG2t-2-10" target="9J6F_ASFOK-RwOqG2t-2-11" edge="1">
          <mxGeometry relative="1" as="geometry" />
        </mxCell>
        <mxCell id="9J6F_ASFOK-RwOqG2t-2-10" value="选待标注文本" style="rounded=0;whiteSpace=wrap;html=1;" parent="1" vertex="1">
          <mxGeometry x="447" y="201.5" width="85" height="31" as="geometry" />
        </mxCell>
        <mxCell id="9J6F_ASFOK-RwOqG2t-2-11" value="添加标签" style="rounded=0;whiteSpace=wrap;html=1;" parent="1" vertex="1">
          <mxGeometry x="559" y="201.5" width="85" height="31" as="geometry" />
        </mxCell>
        <mxCell id="9J6F_ASFOK-RwOqG2t-2-38" style="edgeStyle=orthogonalEdgeStyle;rounded=0;orthogonalLoop=1;jettySize=auto;html=1;" parent="1" source="9J6F_ASFOK-RwOqG2t-2-12" target="9J6F_ASFOK-RwOqG2t-2-37" edge="1">
          <mxGeometry relative="1" as="geometry">
            <Array as="points">
              <mxPoint x="494" y="500" />
              <mxPoint x="602" y="500" />
            </Array>
          </mxGeometry>
        </mxCell>
        <mxCell id="9J6F_ASFOK-RwOqG2t-2-12" value="批量通过" style="rounded=0;whiteSpace=wrap;html=1;" parent="1" vertex="1">
          <mxGeometry x="451" y="458" width="85" height="31" as="geometry" />
        </mxCell>
        <mxCell id="9J6F_ASFOK-RwOqG2t-2-13" value="批量删除" style="rounded=0;whiteSpace=wrap;html=1;" parent="1" vertex="1">
          <mxGeometry x="559" y="458" width="85" height="31" as="geometry" />
        </mxCell>
        <mxCell id="9J6F_ASFOK-RwOqG2t-2-30" style="edgeStyle=orthogonalEdgeStyle;rounded=0;orthogonalLoop=1;jettySize=auto;html=1;entryX=0.5;entryY=0;entryDx=0;entryDy=0;" parent="1" source="9J6F_ASFOK-RwOqG2t-2-14" target="9J6F_ASFOK-RwOqG2t-2-13" edge="1">
          <mxGeometry relative="1" as="geometry" />
        </mxCell>
        <mxCell id="9J6F_ASFOK-RwOqG2t-2-35" style="edgeStyle=orthogonalEdgeStyle;rounded=0;orthogonalLoop=1;jettySize=auto;html=1;" parent="1" source="9J6F_ASFOK-RwOqG2t-2-14" target="9J6F_ASFOK-RwOqG2t-2-12" edge="1">
          <mxGeometry relative="1" as="geometry">
            <Array as="points">
              <mxPoint x="602" y="444" />
              <mxPoint x="494" y="444" />
            </Array>
          </mxGeometry>
        </mxCell>
        <mxCell id="9J6F_ASFOK-RwOqG2t-2-36" style="edgeStyle=orthogonalEdgeStyle;rounded=0;orthogonalLoop=1;jettySize=auto;html=1;" parent="1" source="9J6F_ASFOK-RwOqG2t-2-14" target="9J6F_ASFOK-RwOqG2t-2-15" edge="1">
          <mxGeometry relative="1" as="geometry">
            <Array as="points">
              <mxPoint x="602" y="444" />
              <mxPoint x="710" y="444" />
            </Array>
          </mxGeometry>
        </mxCell>
        <mxCell id="9J6F_ASFOK-RwOqG2t-2-14" value="提交审核" style="strokeWidth=2;html=1;shape=mxgraph.flowchart.decision;whiteSpace=wrap;" parent="1" vertex="1">
          <mxGeometry x="542" y="394.5" width="119" height="42" as="geometry" />
        </mxCell>
        <mxCell id="9J6F_ASFOK-RwOqG2t-2-15" value="批量待定" style="rounded=0;whiteSpace=wrap;html=1;" parent="1" vertex="1">
          <mxGeometry x="667" y="458" width="85" height="31" as="geometry" />
        </mxCell>
        <mxCell id="9J6F_ASFOK-RwOqG2t-2-17" style="edgeStyle=orthogonalEdgeStyle;rounded=0;orthogonalLoop=1;jettySize=auto;html=1;entryX=0.5;entryY=0;entryDx=0;entryDy=0;entryPerimeter=0;" parent="1" source="9J6F_ASFOK-RwOqG2t-2-2" target="9J6F_ASFOK-RwOqG2t-2-3" edge="1">
          <mxGeometry relative="1" as="geometry" />
        </mxCell>
        <mxCell id="9J6F_ASFOK-RwOqG2t-2-27" style="edgeStyle=orthogonalEdgeStyle;rounded=0;orthogonalLoop=1;jettySize=auto;html=1;entryX=0.5;entryY=0;entryDx=0;entryDy=0;entryPerimeter=0;" parent="1" source="9J6F_ASFOK-RwOqG2t-2-11" target="9J6F_ASFOK-RwOqG2t-2-14" edge="1">
          <mxGeometry relative="1" as="geometry" />
        </mxCell>
        <mxCell id="9J6F_ASFOK-RwOqG2t-2-28" style="edgeStyle=orthogonalEdgeStyle;rounded=0;orthogonalLoop=1;jettySize=auto;html=1;entryX=0;entryY=0.5;entryDx=0;entryDy=0;entryPerimeter=0;" parent="1" source="9J6F_ASFOK-RwOqG2t-2-9" target="9J6F_ASFOK-RwOqG2t-2-14" edge="1">
          <mxGeometry relative="1" as="geometry" />
        </mxCell>
        <mxCell id="9J6F_ASFOK-RwOqG2t-2-37" value="结束" style="strokeWidth=2;html=1;shape=mxgraph.flowchart.terminator;whiteSpace=wrap;" parent="1" vertex="1">
          <mxGeometry x="569" y="517" width="65" height="31" as="geometry" />
        </mxCell>
        <mxCell id="9J6F_ASFOK-RwOqG2t-2-39" style="edgeStyle=orthogonalEdgeStyle;rounded=0;orthogonalLoop=1;jettySize=auto;html=1;entryX=0.5;entryY=0;entryDx=0;entryDy=0;entryPerimeter=0;" parent="1" source="9J6F_ASFOK-RwOqG2t-2-15" target="9J6F_ASFOK-RwOqG2t-2-37" edge="1">
          <mxGeometry relative="1" as="geometry">
            <Array as="points">
              <mxPoint x="710" y="500" />
              <mxPoint x="602" y="500" />
            </Array>
          </mxGeometry>
        </mxCell>
        <mxCell id="9J6F_ASFOK-RwOqG2t-2-40" style="edgeStyle=orthogonalEdgeStyle;rounded=0;orthogonalLoop=1;jettySize=auto;html=1;entryX=0.5;entryY=0;entryDx=0;entryDy=0;entryPerimeter=0;" parent="1" source="9J6F_ASFOK-RwOqG2t-2-13" target="9J6F_ASFOK-RwOqG2t-2-37" edge="1">
          <mxGeometry relative="1" as="geometry" />
        </mxCell>
      </root>
    </mxGraphModel>
  </diagram>
</mxfile>
